<svg width="988" height="1133" viewBox="0 0 988 1133" fill="none" xmlns="http://www.w3.org/2000/svg">
<g id="Component 1">
<g id="Book - Front">
<rect width="744" height="1133" transform="translate(244)" fill="url(#paint0_angular_3_11)"/>
<g id="Adventures of Robinson Crusoe" filter="url(#filter0_d_3_11)">
<text fill="white" xml:space="preserve" style="white-space: pre" font-family="Inter" font-size="96" letter-spacing="0em"><tspan x="284" y="140.909">Adventures of </tspan><tspan x="284" y="256.909">Robinson </tspan><tspan x="284" y="372.909">Crusoe&#10;</tspan></text>
</g>
<g id="John F. Kafka" filter="url(#filter1_d_3_11)">
<text fill="white" xml:space="preserve" style="white-space: pre" font-family="Inter" font-size="40" font-weight="600" letter-spacing="0em"><tspan x="693.859" y="1077.55">John F. Kafka</tspan></text>
</g>
</g>
<g id="Book - Side">
<rect width="200" height="1133" fill="url(#paint1_angular_3_11)"/>
<g id="Kafka" filter="url(#filter2_d_3_11)">
<text fill="white" xml:space="preserve" style="white-space: pre" font-family="Inter" font-size="32" font-weight="600" letter-spacing="0em"><tspan x="61.1562" y="1096.14">Kafka</tspan></text>
</g>
<g id="Adventures of Roboinson Crusoe" filter="url(#filter3_d_3_11)">
<text transform="translate(182 40) rotate(90)" fill="white" xml:space="preserve" style="white-space: pre" font-family="Inter" font-size="62" font-weight="500" letter-spacing="0em"><tspan x="12.917" y="104.545">Adventures of Roboinson Crusoe</tspan></text>
</g>
</g>
</g>
<defs>
<filter id="filter0_d_3_11" x="274.455" y="59.9091" width="658.006" height="330.182" filterUnits="userSpaceOnUse" color-interpolation-filters="sRGB">
<feFlood flood-opacity="0" result="BackgroundImageFix"/>
<feColorMatrix in="SourceAlpha" type="matrix" values="0 0 0 0 0 0 0 0 0 0 0 0 0 0 0 0 0 0 127 0" result="hardAlpha"/>
<feOffset dy="4"/>
<feGaussianBlur stdDeviation="6"/>
<feComposite in2="hardAlpha" operator="out"/>
<feColorMatrix type="matrix" values="0 0 0 0 0 0 0 0 0 0 0 0 0 0 0 0 0 0 0.25 0"/>
<feBlend mode="normal" in2="BackgroundImageFix" result="effect1_dropShadow_3_11"/>
<feBlend mode="normal" in="SourceGraphic" in2="effect1_dropShadow_3_11" result="shape"/>
</filter>
<filter id="filter1_d_3_11" x="687.024" y="1043.55" width="271.447" height="46.8949" filterUnits="userSpaceOnUse" color-interpolation-filters="sRGB">
<feFlood flood-opacity="0" result="BackgroundImageFix"/>
<feColorMatrix in="SourceAlpha" type="matrix" values="0 0 0 0 0 0 0 0 0 0 0 0 0 0 0 0 0 0 127 0" result="hardAlpha"/>
<feOffset dy="4"/>
<feGaussianBlur stdDeviation="4"/>
<feComposite in2="hardAlpha" operator="out"/>
<feColorMatrix type="matrix" values="0 0 0 0 0 0 0 0 0 0 0 0 0 0 0 0 0 0 0.25 0"/>
<feBlend mode="normal" in2="BackgroundImageFix" result="effect1_dropShadow_3_11"/>
<feBlend mode="normal" in="SourceGraphic" in2="effect1_dropShadow_3_11" result="shape"/>
</filter>
<filter id="filter2_d_3_11" x="55.4517" y="1067.64" width="100.369" height="40.7159" filterUnits="userSpaceOnUse" color-interpolation-filters="sRGB">
<feFlood flood-opacity="0" result="BackgroundImageFix"/>
<feColorMatrix in="SourceAlpha" type="matrix" values="0 0 0 0 0 0 0 0 0 0 0 0 0 0 0 0 0 0 127 0" result="hardAlpha"/>
<feOffset dy="4"/>
<feGaussianBlur stdDeviation="4"/>
<feComposite in2="hardAlpha" operator="out"/>
<feColorMatrix type="matrix" values="0 0 0 0 0 0 0 0 0 0 0 0 0 0 0 0 0 0 0.25 0"/>
<feBlend mode="normal" in2="BackgroundImageFix" result="effect1_dropShadow_3_11"/>
<feBlend mode="normal" in="SourceGraphic" in2="effect1_dropShadow_3_11" result="shape"/>
</filter>
<filter id="filter3_d_3_11" x="68.3174" y="50.4582" width="63.8871" height="988.746" filterUnits="userSpaceOnUse" color-interpolation-filters="sRGB">
<feFlood flood-opacity="0" result="BackgroundImageFix"/>
<feColorMatrix in="SourceAlpha" type="matrix" values="0 0 0 0 0 0 0 0 0 0 0 0 0 0 0 0 0 0 127 0" result="hardAlpha"/>
<feOffset dy="4"/>
<feGaussianBlur stdDeviation="4"/>
<feComposite in2="hardAlpha" operator="out"/>
<feColorMatrix type="matrix" values="0 0 0 0 0 0 0 0 0 0 0 0 0 0 0 0 0 0 0.25 0"/>
<feBlend mode="normal" in2="BackgroundImageFix" result="effect1_dropShadow_3_11"/>
<feBlend mode="normal" in="SourceGraphic" in2="effect1_dropShadow_3_11" result="shape"/>
</filter>
<!-- <radialGradient id="paint0_angular_3_11" cx="0" cy="0" r="1" gradientUnits="userSpaceOnUse" gradientTransform="translate(372 566.5) rotate(90) scale(566.5 566.5)">
<stop stop-color="#DD8282"/>
<stop offset="1" stop-color="#802525"/>
</radialGradient> -->
<pattern id="paint0_angular_3_11" width="10000" height="10000" patternUnits="userSpaceOnUse">
<path d="M 372,566.5 L 1372.0,566.5 A 0,0 0 1,1 1371.39,601.4 Z" fill="#dd8282" />
<path d="M 372,566.5 L 1371.39,601.4 A 0,0 0 1,1 1369.56,636.26 Z" fill="#dc8181" />
<path d="M 372,566.5 L 1369.56,636.26 A 0,0 0 1,1 1366.52,671.03 Z" fill="#db8080" />
<path d="M 372,566.5 L 1366.52,671.03 A 0,0 0 1,1 1362.27,705.67 Z" fill="#db8080" />
<path d="M 372,566.5 L 1362.27,705.67 A 0,0 0 1,1 1356.81,740.15 Z" fill="#da7f7f" />
<path d="M 372,566.5 L 1356.81,740.15 A 0,0 0 1,1 1350.15,774.41 Z" fill="#da7f7f" />
<path d="M 372,566.5 L 1350.15,774.41 A 0,0 0 1,1 1342.3,808.42 Z" fill="#d97e7e" />
<path d="M 372,566.5 L 1342.3,808.42 A 0,0 0 1,1 1333.26,842.14 Z" fill="#d97e7e" />
<path d="M 372,566.5 L 1333.26,842.14 A 0,0 0 1,1 1323.06,875.52 Z" fill="#d87d7d" />
<path d="M 372,566.5 L 1323.06,875.52 A 0,0 0 1,1 1311.69,908.52 Z" fill="#d87d7d" />
<path d="M 372,566.5 L 1311.69,908.52 A 0,0 0 1,1 1299.18,941.11 Z" fill="#d77c7c" />
<path d="M 372,566.5 L 1299.18,941.11 A 0,0 0 1,1 1285.55,973.24 Z" fill="#d77c7c" />
<path d="M 372,566.5 L 1285.55,973.24 A 0,0 0 1,1 1270.79,1004.87 Z" fill="#d67b7b" />
<path d="M 372,566.5 L 1270.79,1004.87 A 0,0 0 1,1 1254.95,1035.97 Z" fill="#d67b7b" />
<path d="M 372,566.5 L 1254.95,1035.97 A 0,0 0 1,1 1238.03,1066.5 Z" fill="#d57a7a" />
<path d="M 372,566.5 L 1238.03,1066.5 A 0,0 0 1,1 1220.05,1096.42 Z" fill="#d57a7a" />
<path d="M 372,566.5 L 1220.05,1096.42 A 0,0 0 1,1 1201.04,1125.69 Z" fill="#d47979" />
<path d="M 372,566.5 L 1201.04,1125.69 A 0,0 0 1,1 1181.02,1154.29 Z" fill="#d47979" />
<path d="M 372,566.5 L 1181.02,1154.29 A 0,0 0 1,1 1160.01,1182.16 Z" fill="#d37878" />
<path d="M 372,566.5 L 1160.01,1182.16 A 0,0 0 1,1 1138.04,1209.29 Z" fill="#d37878" />
<path d="M 372,566.5 L 1138.04,1209.29 A 0,0 0 1,1 1115.14,1235.63 Z" fill="#d27777" />
<path d="M 372,566.5 L 1115.14,1235.63 A 0,0 0 1,1 1091.34,1261.16 Z" fill="#d27777" />
<path d="M 372,566.5 L 1091.34,1261.16 A 0,0 0 1,1 1066.66,1285.84 Z" fill="#d17676" />
<path d="M 372,566.5 L 1066.66,1285.84 A 0,0 0 1,1 1041.13,1309.64 Z" fill="#d17676" />
<path d="M 372,566.5 L 1041.13,1309.64 A 0,0 0 1,1 1014.79,1332.54 Z" fill="#d07575" />
<path d="M 372,566.5 L 1014.79,1332.54 A 0,0 0 1,1 987.66,1354.51 Z" fill="#d07575" />
<path d="M 372,566.5 L 987.66,1354.51 A 0,0 0 1,1 959.79,1375.52 Z" fill="#cf7474" />
<path d="M 372,566.5 L 959.79,1375.52 A 0,0 0 1,1 931.19,1395.54 Z" fill="#cf7474" />
<path d="M 372,566.5 L 931.19,1395.54 A 0,0 0 1,1 901.92,1414.55 Z" fill="#ce7373" />
<path d="M 372,566.5 L 901.92,1414.55 A 0,0 0 1,1 872.0,1432.53 Z" fill="#ce7373" />
<path d="M 372,566.5 L 872.0,1432.53 A 0,0 0 1,1 841.47,1449.45 Z" fill="#cd7272" />
<path d="M 372,566.5 L 841.47,1449.45 A 0,0 0 1,1 810.37,1465.29 Z" fill="#cc7171" />
<path d="M 372,566.5 L 810.37,1465.29 A 0,0 0 1,1 778.74,1480.05 Z" fill="#cc7171" />
<path d="M 372,566.5 L 778.74,1480.05 A 0,0 0 1,1 746.61,1493.68 Z" fill="#cb7070" />
<path d="M 372,566.5 L 746.61,1493.68 A 0,0 0 1,1 714.02,1506.19 Z" fill="#cb7070" />
<path d="M 372,566.5 L 714.02,1506.19 A 0,0 0 1,1 681.02,1517.56 Z" fill="#ca6f6f" />
<path d="M 372,566.5 L 681.02,1517.56 A 0,0 0 1,1 647.64,1527.76 Z" fill="#ca6f6f" />
<path d="M 372,566.5 L 647.64,1527.76 A 0,0 0 1,1 613.92,1536.8 Z" fill="#c96e6e" />
<path d="M 372,566.5 L 613.92,1536.8 A 0,0 0 1,1 579.91,1544.65 Z" fill="#c96e6e" />
<path d="M 372,566.5 L 579.91,1544.65 A 0,0 0 1,1 545.65,1551.31 Z" fill="#c86d6d" />
<path d="M 372,566.5 L 545.65,1551.31 A 0,0 0 1,1 511.17,1556.77 Z" fill="#c86d6d" />
<path d="M 372,566.5 L 511.17,1556.77 A 0,0 0 1,1 476.53,1561.02 Z" fill="#c76c6c" />
<path d="M 372,566.5 L 476.53,1561.02 A 0,0 0 1,1 441.76,1564.06 Z" fill="#c76c6c" />
<path d="M 372,566.5 L 441.76,1564.06 A 0,0 0 1,1 406.9,1565.89 Z" fill="#c66b6b" />
<path d="M 372,566.5 L 406.9,1565.89 A 0,0 0 1,1 372.0,1566.5 Z" fill="#c66b6b" />
<path d="M 372,566.5 L 372.0,1566.5 A 0,0 0 1,1 337.1,1565.89 Z" fill="#c56a6a" />
<path d="M 372,566.5 L 337.1,1565.89 A 0,0 0 1,1 302.24,1564.06 Z" fill="#c56a6a" />
<path d="M 372,566.5 L 302.24,1564.06 A 0,0 0 1,1 267.47,1561.02 Z" fill="#c46969" />
<path d="M 372,566.5 L 267.47,1561.02 A 0,0 0 1,1 232.83,1556.77 Z" fill="#c46969" />
<path d="M 372,566.5 L 232.83,1556.77 A 0,0 0 1,1 198.35,1551.31 Z" fill="#c36868" />
<path d="M 372,566.5 L 198.35,1551.31 A 0,0 0 1,1 164.09,1544.65 Z" fill="#c36868" />
<path d="M 372,566.5 L 164.09,1544.65 A 0,0 0 1,1 130.08,1536.8 Z" fill="#c26767" />
<path d="M 372,566.5 L 130.08,1536.8 A 0,0 0 1,1 96.36,1527.76 Z" fill="#c26767" />
<path d="M 372,566.5 L 96.36,1527.76 A 0,0 0 1,1 62.98,1517.56 Z" fill="#c16666" />
<path d="M 372,566.5 L 62.98,1517.56 A 0,0 0 1,1 29.98,1506.19 Z" fill="#c16666" />
<path d="M 372,566.5 L 29.98,1506.19 A 0,0 0 1,1 -2.61,1493.68 Z" fill="#c06565" />
<path d="M 372,566.5 L -2.61,1493.68 A 0,0 0 1,1 -34.74,1480.05 Z" fill="#c06565" />
<path d="M 372,566.5 L -34.74,1480.05 A 0,0 0 1,1 -66.37,1465.29 Z" fill="#bf6464" />
<path d="M 372,566.5 L -66.37,1465.29 A 0,0 0 1,1 -97.47,1449.45 Z" fill="#bf6464" />
<path d="M 372,566.5 L -97.47,1449.45 A 0,0 0 1,1 -128.0,1432.53 Z" fill="#be6363" />
<path d="M 372,566.5 L -128.0,1432.53 A 0,0 0 1,1 -157.92,1414.55 Z" fill="#be6363" />
<path d="M 372,566.5 L -157.92,1414.55 A 0,0 0 1,1 -187.19,1395.54 Z" fill="#bd6262" />
<path d="M 372,566.5 L -187.19,1395.54 A 0,0 0 1,1 -215.79,1375.52 Z" fill="#bc6161" />
<path d="M 372,566.5 L -215.79,1375.52 A 0,0 0 1,1 -243.66,1354.51 Z" fill="#bc6161" />
<path d="M 372,566.5 L -243.66,1354.51 A 0,0 0 1,1 -270.79,1332.54 Z" fill="#bb6060" />
<path d="M 372,566.5 L -270.79,1332.54 A 0,0 0 1,1 -297.13,1309.64 Z" fill="#bb6060" />
<path d="M 372,566.5 L -297.13,1309.64 A 0,0 0 1,1 -322.66,1285.84 Z" fill="#ba5f5f" />
<path d="M 372,566.5 L -322.66,1285.84 A 0,0 0 1,1 -347.34,1261.16 Z" fill="#ba5f5f" />
<path d="M 372,566.5 L -347.34,1261.16 A 0,0 0 1,1 -371.14,1235.63 Z" fill="#b95e5e" />
<path d="M 372,566.5 L -371.14,1235.63 A 0,0 0 1,1 -394.04,1209.29 Z" fill="#b95e5e" />
<path d="M 372,566.5 L -394.04,1209.29 A 0,0 0 1,1 -416.01,1182.16 Z" fill="#b85d5d" />
<path d="M 372,566.5 L -416.01,1182.16 A 0,0 0 1,1 -437.02,1154.29 Z" fill="#b85d5d" />
<path d="M 372,566.5 L -437.02,1154.29 A 0,0 0 1,1 -457.04,1125.69 Z" fill="#b75c5c" />
<path d="M 372,566.5 L -457.04,1125.69 A 0,0 0 1,1 -476.05,1096.42 Z" fill="#b75c5c" />
<path d="M 372,566.5 L -476.05,1096.42 A 0,0 0 1,1 -494.03,1066.5 Z" fill="#b65b5b" />
<path d="M 372,566.5 L -494.03,1066.5 A 0,0 0 1,1 -510.95,1035.97 Z" fill="#b65b5b" />
<path d="M 372,566.5 L -510.95,1035.97 A 0,0 0 1,1 -526.79,1004.87 Z" fill="#b55a5a" />
<path d="M 372,566.5 L -526.79,1004.87 A 0,0 0 1,1 -541.55,973.24 Z" fill="#b55a5a" />
<path d="M 372,566.5 L -541.55,973.24 A 0,0 0 1,1 -555.18,941.11 Z" fill="#b45959" />
<path d="M 372,566.5 L -555.18,941.11 A 0,0 0 1,1 -567.69,908.52 Z" fill="#b45959" />
<path d="M 372,566.5 L -567.69,908.52 A 0,0 0 1,1 -579.06,875.52 Z" fill="#b35858" />
<path d="M 372,566.5 L -579.06,875.52 A 0,0 0 1,1 -589.26,842.14 Z" fill="#b35858" />
<path d="M 372,566.5 L -589.26,842.14 A 0,0 0 1,1 -598.3,808.42 Z" fill="#b25757" />
<path d="M 372,566.5 L -598.3,808.42 A 0,0 0 1,1 -606.15,774.41 Z" fill="#b25757" />
<path d="M 372,566.5 L -606.15,774.41 A 0,0 0 1,1 -612.81,740.15 Z" fill="#b15656" />
<path d="M 372,566.5 L -612.81,740.15 A 0,0 0 1,1 -618.27,705.67 Z" fill="#b15656" />
<path d="M 372,566.5 L -618.27,705.67 A 0,0 0 1,1 -622.52,671.03 Z" fill="#b05555" />
<path d="M 372,566.5 L -622.52,671.03 A 0,0 0 1,1 -625.56,636.26 Z" fill="#b05555" />
<path d="M 372,566.5 L -625.56,636.26 A 0,0 0 1,1 -627.39,601.4 Z" fill="#af5454" />
<path d="M 372,566.5 L -627.39,601.4 A 0,0 0 1,1 -628.0,566.5 Z" fill="#af5454" />
<path d="M 372,566.5 L -628.0,566.5 A 0,0 0 1,1 -627.39,531.6 Z" fill="#ae5353" />
<path d="M 372,566.5 L -627.39,531.6 A 0,0 0 1,1 -625.56,496.74 Z" fill="#ad5252" />
<path d="M 372,566.5 L -625.56,496.74 A 0,0 0 1,1 -622.52,461.97 Z" fill="#ad5252" />
<path d="M 372,566.5 L -622.52,461.97 A 0,0 0 1,1 -618.27,427.33 Z" fill="#ac5151" />
<path d="M 372,566.5 L -618.27,427.33 A 0,0 0 1,1 -612.81,392.85 Z" fill="#ac5151" />
<path d="M 372,566.5 L -612.81,392.85 A 0,0 0 1,1 -606.15,358.59 Z" fill="#ab5050" />
<path d="M 372,566.5 L -606.15,358.59 A 0,0 0 1,1 -598.3,324.58 Z" fill="#ab5050" />
<path d="M 372,566.5 L -598.3,324.58 A 0,0 0 1,1 -589.26,290.86 Z" fill="#aa4f4f" />
<path d="M 372,566.5 L -589.26,290.86 A 0,0 0 1,1 -579.06,257.48 Z" fill="#aa4f4f" />
<path d="M 372,566.5 L -579.06,257.48 A 0,0 0 1,1 -567.69,224.48 Z" fill="#a94e4e" />
<path d="M 372,566.5 L -567.69,224.48 A 0,0 0 1,1 -555.18,191.89 Z" fill="#a94e4e" />
<path d="M 372,566.5 L -555.18,191.89 A 0,0 0 1,1 -541.55,159.76 Z" fill="#a84d4d" />
<path d="M 372,566.5 L -541.55,159.76 A 0,0 0 1,1 -526.79,128.13 Z" fill="#a84d4d" />
<path d="M 372,566.5 L -526.79,128.13 A 0,0 0 1,1 -510.95,97.03 Z" fill="#a74c4c" />
<path d="M 372,566.5 L -510.95,97.03 A 0,0 0 1,1 -494.03,66.5 Z" fill="#a74c4c" />
<path d="M 372,566.5 L -494.03,66.5 A 0,0 0 1,1 -476.05,36.58 Z" fill="#a64b4b" />
<path d="M 372,566.5 L -476.05,36.58 A 0,0 0 1,1 -457.04,7.31 Z" fill="#a64b4b" />
<path d="M 372,566.5 L -457.04,7.31 A 0,0 0 1,1 -437.02,-21.29 Z" fill="#a54a4a" />
<path d="M 372,566.5 L -437.02,-21.29 A 0,0 0 1,1 -416.01,-49.16 Z" fill="#a54a4a" />
<path d="M 372,566.5 L -416.01,-49.16 A 0,0 0 1,1 -394.04,-76.29 Z" fill="#a44949" />
<path d="M 372,566.5 L -394.04,-76.29 A 0,0 0 1,1 -371.14,-102.63 Z" fill="#a44949" />
<path d="M 372,566.5 L -371.14,-102.63 A 0,0 0 1,1 -347.34,-128.16 Z" fill="#a34848" />
<path d="M 372,566.5 L -347.34,-128.16 A 0,0 0 1,1 -322.66,-152.84 Z" fill="#a34848" />
<path d="M 372,566.5 L -322.66,-152.84 A 0,0 0 1,1 -297.13,-176.64 Z" fill="#a24747" />
<path d="M 372,566.5 L -297.13,-176.64 A 0,0 0 1,1 -270.79,-199.54 Z" fill="#a24747" />
<path d="M 372,566.5 L -270.79,-199.54 A 0,0 0 1,1 -243.66,-221.51 Z" fill="#a14646" />
<path d="M 372,566.5 L -243.66,-221.51 A 0,0 0 1,1 -215.79,-242.52 Z" fill="#a14646" />
<path d="M 372,566.5 L -215.79,-242.52 A 0,0 0 1,1 -187.19,-262.54 Z" fill="#a04545" />
<path d="M 372,566.5 L -187.19,-262.54 A 0,0 0 1,1 -157.92,-281.55 Z" fill="#a04545" />
<path d="M 372,566.5 L -157.92,-281.55 A 0,0 0 1,1 -128.0,-299.53 Z" fill="#9f4444" />
<path d="M 372,566.5 L -128.0,-299.53 A 0,0 0 1,1 -97.47,-316.45 Z" fill="#9f4444" />
<path d="M 372,566.5 L -97.47,-316.45 A 0,0 0 1,1 -66.37,-332.29 Z" fill="#9e4343" />
<path d="M 372,566.5 L -66.37,-332.29 A 0,0 0 1,1 -34.74,-347.05 Z" fill="#9d4242" />
<path d="M 372,566.5 L -34.74,-347.05 A 0,0 0 1,1 -2.61,-360.68 Z" fill="#9d4242" />
<path d="M 372,566.5 L -2.61,-360.68 A 0,0 0 1,1 29.98,-373.19 Z" fill="#9c4141" />
<path d="M 372,566.5 L 29.98,-373.19 A 0,0 0 1,1 62.98,-384.56 Z" fill="#9c4141" />
<path d="M 372,566.5 L 62.98,-384.56 A 0,0 0 1,1 96.36,-394.76 Z" fill="#9b4040" />
<path d="M 372,566.5 L 96.36,-394.76 A 0,0 0 1,1 130.08,-403.8 Z" fill="#9b4040" />
<path d="M 372,566.5 L 130.08,-403.8 A 0,0 0 1,1 164.09,-411.65 Z" fill="#9a3f3f" />
<path d="M 372,566.5 L 164.09,-411.65 A 0,0 0 1,1 198.35,-418.31 Z" fill="#9a3f3f" />
<path d="M 372,566.5 L 198.35,-418.31 A 0,0 0 1,1 232.83,-423.77 Z" fill="#993e3e" />
<path d="M 372,566.5 L 232.83,-423.77 A 0,0 0 1,1 267.47,-428.02 Z" fill="#993e3e" />
<path d="M 372,566.5 L 267.47,-428.02 A 0,0 0 1,1 302.24,-431.06 Z" fill="#983d3d" />
<path d="M 372,566.5 L 302.24,-431.06 A 0,0 0 1,1 337.1,-432.89 Z" fill="#983d3d" />
<path d="M 372,566.5 L 337.1,-432.89 A 0,0 0 1,1 372.0,-433.5 Z" fill="#973c3c" />
<path d="M 372,566.5 L 372.0,-433.5 A 0,0 0 1,1 406.9,-432.89 Z" fill="#973c3c" />
<path d="M 372,566.5 L 406.9,-432.89 A 0,0 0 1,1 441.76,-431.06 Z" fill="#963b3b" />
<path d="M 372,566.5 L 441.76,-431.06 A 0,0 0 1,1 476.53,-428.02 Z" fill="#963b3b" />
<path d="M 372,566.5 L 476.53,-428.02 A 0,0 0 1,1 511.17,-423.77 Z" fill="#953a3a" />
<path d="M 372,566.5 L 511.17,-423.77 A 0,0 0 1,1 545.65,-418.31 Z" fill="#953a3a" />
<path d="M 372,566.5 L 545.65,-418.31 A 0,0 0 1,1 579.91,-411.65 Z" fill="#943939" />
<path d="M 372,566.5 L 579.91,-411.65 A 0,0 0 1,1 613.92,-403.8 Z" fill="#943939" />
<path d="M 372,566.5 L 613.92,-403.8 A 0,0 0 1,1 647.64,-394.76 Z" fill="#933838" />
<path d="M 372,566.5 L 647.64,-394.76 A 0,0 0 1,1 681.02,-384.56 Z" fill="#933838" />
<path d="M 372,566.5 L 681.02,-384.56 A 0,0 0 1,1 714.02,-373.19 Z" fill="#923737" />
<path d="M 372,566.5 L 714.02,-373.19 A 0,0 0 1,1 746.61,-360.68 Z" fill="#923737" />
<path d="M 372,566.5 L 746.61,-360.68 A 0,0 0 1,1 778.74,-347.05 Z" fill="#913636" />
<path d="M 372,566.5 L 778.74,-347.05 A 0,0 0 1,1 810.37,-332.29 Z" fill="#913636" />
<path d="M 372,566.5 L 810.37,-332.29 A 0,0 0 1,1 841.47,-316.45 Z" fill="#903535" />
<path d="M 372,566.5 L 841.47,-316.45 A 0,0 0 1,1 872.0,-299.53 Z" fill="#903535" />
<path d="M 372,566.5 L 872.0,-299.53 A 0,0 0 1,1 901.92,-281.55 Z" fill="#8f3434" />
<path d="M 372,566.5 L 901.92,-281.55 A 0,0 0 1,1 931.19,-262.54 Z" fill="#8e3333" />
<path d="M 372,566.5 L 931.19,-262.54 A 0,0 0 1,1 959.79,-242.52 Z" fill="#8e3333" />
<path d="M 372,566.5 L 959.79,-242.52 A 0,0 0 1,1 987.66,-221.51 Z" fill="#8d3232" />
<path d="M 372,566.5 L 987.66,-221.51 A 0,0 0 1,1 1014.79,-199.54 Z" fill="#8d3232" />
<path d="M 372,566.5 L 1014.79,-199.54 A 0,0 0 1,1 1041.13,-176.64 Z" fill="#8c3131" />
<path d="M 372,566.5 L 1041.13,-176.64 A 0,0 0 1,1 1066.66,-152.84 Z" fill="#8c3131" />
<path d="M 372,566.5 L 1066.66,-152.84 A 0,0 0 1,1 1091.34,-128.16 Z" fill="#8b3030" />
<path d="M 372,566.5 L 1091.34,-128.16 A 0,0 0 1,1 1115.14,-102.63 Z" fill="#8b3030" />
<path d="M 372,566.5 L 1115.14,-102.63 A 0,0 0 1,1 1138.04,-76.29 Z" fill="#8a2f2f" />
<path d="M 372,566.5 L 1138.04,-76.29 A 0,0 0 1,1 1160.01,-49.16 Z" fill="#8a2f2f" />
<path d="M 372,566.5 L 1160.01,-49.16 A 0,0 0 1,1 1181.02,-21.29 Z" fill="#892e2e" />
<path d="M 372,566.5 L 1181.02,-21.29 A 0,0 0 1,1 1201.04,7.31 Z" fill="#892e2e" />
<path d="M 372,566.5 L 1201.04,7.31 A 0,0 0 1,1 1220.05,36.58 Z" fill="#882d2d" />
<path d="M 372,566.5 L 1220.05,36.58 A 0,0 0 1,1 1238.03,66.5 Z" fill="#882d2d" />
<path d="M 372,566.5 L 1238.03,66.5 A 0,0 0 1,1 1254.95,97.03 Z" fill="#872c2c" />
<path d="M 372,566.5 L 1254.95,97.03 A 0,0 0 1,1 1270.79,128.13 Z" fill="#872c2c" />
<path d="M 372,566.5 L 1270.79,128.13 A 0,0 0 1,1 1285.55,159.76 Z" fill="#862b2b" />
<path d="M 372,566.5 L 1285.55,159.76 A 0,0 0 1,1 1299.18,191.89 Z" fill="#862b2b" />
<path d="M 372,566.5 L 1299.18,191.89 A 0,0 0 1,1 1311.69,224.48 Z" fill="#852a2a" />
<path d="M 372,566.5 L 1311.69,224.48 A 0,0 0 1,1 1323.06,257.48 Z" fill="#852a2a" />
<path d="M 372,566.5 L 1323.06,257.48 A 0,0 0 1,1 1333.26,290.86 Z" fill="#842929" />
<path d="M 372,566.5 L 1333.26,290.86 A 0,0 0 1,1 1342.3,324.58 Z" fill="#842929" />
<path d="M 372,566.5 L 1342.3,324.58 A 0,0 0 1,1 1350.15,358.59 Z" fill="#832828" />
<path d="M 372,566.5 L 1350.15,358.59 A 0,0 0 1,1 1356.81,392.85 Z" fill="#832828" />
<path d="M 372,566.5 L 1356.81,392.85 A 0,0 0 1,1 1362.27,427.33 Z" fill="#822727" />
<path d="M 372,566.5 L 1362.27,427.33 A 0,0 0 1,1 1366.52,461.97 Z" fill="#822727" />
<path d="M 372,566.5 L 1366.52,461.97 A 0,0 0 1,1 1369.56,496.74 Z" fill="#812626" />
<path d="M 372,566.5 L 1369.56,496.74 A 0,0 0 1,1 1371.39,531.6 Z" fill="#812626" />
<path d="M 372,566.5 L 1371.39,531.6 A 0,0 0 1,1 1372.0,566.5 Z" fill="#802525" />
</pattern>
<radialGradient id="paint1_angular_3_11" cx="0" cy="0" r="1" gradientUnits="userSpaceOnUse" gradientTransform="translate(100 566.5) rotate(180) scale(572 572)">
<stop stop-color="#DD8282"/>
<stop offset="1" stop-color="#802525"/>
</radialGradient>
</defs>
</svg>
